# xmcd
#
# Track frame offsets:
#	150
#	18242
#	49337
#	79748
#	121465
#	133932
#	175016
#	224337
#
# Disc length: 3489 seconds
#
# Revision: 1
# Processed by: cddbd v1.5.2PL0 Copyright (c) Steve Scherf et al.
# Submitted via: audiograbber 1.83.01
#
DISCID=6d0d9f08
DTITLE=Grateful Dead - 95-04-05A BJCC Coliseum, Birmingham AL
DYEAR=1900
DGENRE=
TTITLE0=Tuning
TTITLE1=Touch Of Grey
TTITLE2=Wang Dang Doodle
TTITLE3=Stagger Lee
TTITLE4=Me and My Uncle
TTITLE5=Maggie's Farm
TTITLE6=Row Jimmy
TTITLE7=The Music Never Stopped
EXTD=
EXTT0=
EXTT1=
EXTT2=
EXTT3=
EXTT4=
EXTT5=
EXTT6=
EXTT7=
PLAYORDER=
